<?xml version="1.0" encoding="UTF-8" standalone="no"?>
<svg
   xmlns:dc="http://purl.org/dc/elements/1.1/"
   xmlns:cc="http://creativecommons.org/ns#"
   xmlns:rdf="http://www.w3.org/1999/02/22-rdf-syntax-ns#"
   xmlns:svg="http://www.w3.org/2000/svg"
   xmlns="http://www.w3.org/2000/svg"
   xmlns:sodipodi="http://sodipodi.sourceforge.net/DTD/sodipodi-0.dtd"
   xmlns:inkscape="http://www.inkscape.org/namespaces/inkscape"
   sodipodi:docname="FuruhashiLab_logo2020.svg"
   inkscape:version="1.0 (4035a4f, 2020-05-01)"
   id="svg8"
   version="1.1"
   viewBox="0 0 210 297"
   height="297mm"
   width="210mm">
  <defs
     id="defs2" />
  <sodipodi:namedview
     inkscape:window-maximized="0"
     inkscape:window-y="23"
     inkscape:window-x="0"
     inkscape:window-height="855"
     inkscape:window-width="1440"
     showgrid="false"
     inkscape:document-rotation="0"
     inkscape:current-layer="layer1"
     inkscape:document-units="mm"
     inkscape:cy="392.81343"
     inkscape:cx="383.96545"
     inkscape:zoom="1.103009"
     inkscape:pageshadow="2"
     inkscape:pageopacity="0.0"
     borderopacity="1.0"
     bordercolor="#666666"
     pagecolor="#ffffff"
     id="base" />
  <metadata
     id="metadata5">
    <rdf:RDF>
      <cc:Work
         rdf:about="">
        <dc:format>image/svg+xml</dc:format>
        <dc:type
           rdf:resource="http://purl.org/dc/dcmitype/StillImage" />
        <dc:title></dc:title>
      </cc:Work>
    </rdf:RDF>
  </metadata>
  <g
     id="layer1"
     inkscape:groupmode="layer"
     inkscape:label="レイヤー 1">
    <path
       id="path915"
       d="m 59.991231,156.42772 c -9.209492,-4.60344 -16.801729,-8.46244 -16.871636,-8.57555 -0.142999,-0.23138 25.131809,-50.787885 25.39048,-50.787885 0.09012,0 3.950165,3.776325 8.57789,8.391815 l 8.414046,8.39182 11.356288,-7.56916 c 6.245951,-4.16305 11.945891,-7.979055 12.666511,-8.480025 0.72063,-0.50096 1.37974,-0.91084 1.4647,-0.91084 0.085,0 5.87838,3.816145 12.87427,8.480325 l 12.71981,8.48033 4.95369,-4.9422 c 6.52391,-6.50878 11.98015,-11.834965 12.12797,-11.838905 0.21827,-0.006 25.3976,50.469125 25.30143,50.719725 -0.0521,0.13583 -7.67715,4.0379 -16.94452,8.67128 l -16.84976,8.42433 -16.18585,-8.05834 c -8.90222,-4.43209 -16.56891,-8.23156 -17.03709,-8.44327 -0.63954,-0.2892 -0.9466,-0.34251 -1.23472,-0.21439 -0.21092,0.0938 -0.74068,0.32142 -1.17724,0.50584 -0.43656,0.18441 -7.91908,3.88798 -16.627817,8.23015 -8.708736,4.34217 -15.910533,7.89485 -16.003993,7.89485 -0.09346,0 -7.704966,-3.76645 -16.914459,-8.3699 z m 17.249397,-18.88218 c 1.759772,-8.82827 3.198035,-16.21069 3.196144,-16.4054 -0.0035,-0.36037 -9.267668,-9.78835 -9.618282,-9.78835 -0.213562,0 -16.551812,32.62964 -16.409505,32.77194 0.277584,0.27759 19.425538,9.6778 19.520912,9.58331 0.06113,-0.0606 1.550961,-7.33324 3.310731,-16.1615 z m 81.200692,11.22251 c 5.11748,-2.53233 9.30451,-4.65332 9.30451,-4.71333 0,-0.24435 -16.32618,-32.70067 -16.44965,-32.70175 -0.0735,-7.1e-4 -2.28322,2.15547 -4.91045,4.79138 -5.43243,5.4504 -4.91751,4.54774 -4.30954,7.55466 0.16672,0.82462 0.40443,2.01524 0.52822,2.64583 0.95552,4.86719 5.41394,26.96321 5.48961,27.2066 0.0852,0.27414 0.14662,0.28106 0.56916,0.0641 0.26049,-0.13377 4.66066,-2.31512 9.77814,-4.84746 z m -63.456251,-2.35835 11.730211,-5.86432 v -15.30396 -15.30396 l -4.8066,3.20068 c -2.643631,1.76037 -6.528191,4.3467 -8.632361,5.74738 -2.104169,1.40069 -3.914801,2.65399 -4.023626,2.78512 -0.158,0.19038 -1.757321,7.60889 -2.452708,11.37698 -0.08057,0.43656 -0.95071,4.78457 -1.933651,9.66223 -1.704095,8.45624 -1.900945,9.56416 -1.699325,9.56416 0.04831,0 5.366439,-2.63894 11.81806,-5.86431 z m 44.001691,5.37924 c -0.004,-0.26679 -0.0837,-0.84226 -0.17659,-1.27882 -0.16592,-0.77964 -0.49234,-2.40657 -0.97324,-4.8507 -2.12929,-10.82185 -4.84361,-23.97303 -4.96521,-24.05696 -0.38512,-0.26585 -17.08545,-11.41234 -17.28728,-11.53826 -0.18323,-0.1143 -0.22611,2.76252 -0.22611,15.17007 v 15.31112 l 11.68577,5.85443 c 6.42717,3.21994 11.74529,5.85888 11.81805,5.86431 0.0728,0.005 0.12884,-0.2084 0.12461,-0.47519 z m 0.97782,-64.892985 c -0.29104,-0.044 -2.19604,-0.3197 -4.23333,-0.61258 -8.22261,-1.18204 -20.62319,-3.69401 -22.16059,-4.48903 -0.83266,-0.43059 -1.38733,-1.43052 -1.38733,-2.50103 0,-1.10929 0.28309,-1.70124 5.31357,-11.11093 3.6669,-6.85907 4.42934,-8.21594 5.24976,-9.3427 1.10332,-1.51529 3.57866,-2.69763 5.64775,-2.69763 0.55247,0 1.09973,0.0952 1.21615,0.21167 0.3003,0.30031 0.26454,2.14665 -0.14284,7.37306 -0.47521,6.09672 -0.54739,5.46805 0.62785,5.46805 2.34665,0 3.50486,1.74083 2.55316,3.8375 l -0.34075,0.7507 0.56511,0.23473 c 0.83482,0.34677 9.30157,3.2433 14.02265,4.79724 4.56689,1.50319 4.87442,1.69259 4.44224,2.73597 -0.449,1.08397 -3.797,3.6345 -6.26121,4.76982 -1.07392,0.49478 -1.44621,0.57306 -2.90733,0.61134 -0.92163,0.0241 -1.91381,0.008 -2.20486,-0.0362 z"
       style="fill:#000000;stroke-width:0.176389" />
  </g>
</svg>
